<?xml version="1.0" encoding="utf-8"?>
<!-- Generator: Adobe Illustrator 24.2.1, SVG Export Plug-In . SVG Version: 6.00 Build 0)  -->
<svg version="1.1" id="Layer_1" xmlns="http://www.w3.org/2000/svg" xmlns:xlink="http://www.w3.org/1999/xlink" x="0px" y="0px"
	 viewBox="0 0 501 371.2" style="enable-background:new 0 0 501 371.2;" xml:space="preserve">
<style type="text/css">
	.st0{opacity:0.1;fill:url(#SVGID_1_);enable-background:new    ;}
	.st1{opacity:0.1;fill:none;stroke:#888A8C;stroke-width:0.5;stroke-miterlimit:10;enable-background:new    ;}
</style>
<g>
	<g>
		
			<linearGradient id="SVGID_1_" gradientUnits="userSpaceOnUse" x1="-7.9831" y1="221.654" x2="462.2339" y2="221.654" gradientTransform="matrix(1 0 0 -1 0 371)">
			<stop  offset="0" style="stop-color:#FFFFFF;stop-opacity:0"/>
			<stop  offset="0.3679" style="stop-color:#074B9F;stop-opacity:0.6"/>
			<stop  offset="0.823" style="stop-color:#074B9F;stop-opacity:0.8"/>
		</linearGradient>
		<path class="st0" d="M101,31C53,74.3-78.4,197.2,40.4,238.4c43.5,15.1,92.6,4.4,136.6,21.9c49.2,19.5,88.4,50.2,143.8,46.4
			c46.4-3.2,63.6-41.1,68.5-82.4c5.1-43,20.1-52.5,47.5-84c22.6-26,38.3-60.9,10.6-88.2c-29.6-29.2-78.8-15.4-116.6-17.5
			c-25.9-1.4-53.2-5.3-75.2-18c-12.2-7.1-25-16.9-38.9-21.4C188.2-14.2,139.8-5.6,101,31L101,31z"/>
	</g>
</g>
<path class="st1" d="M169.6,70.1c-7.3,5-13.4,11.5-19.4,18.1c-37.8,41.5-176.3,182.4-66.9,220.4c43.5,15.1,92.6,4.4,136.6,21.9
	c49.2,19.5,88.4,50.2,143.8,46.4c46.4-3.2,63.6-41.1,68.5-82.5c5.1-43,20.1-52.5,47.5-84c22.6-26,38.3-60.9,10.6-88.2
	c-29.6-29.2-78.8-15.3-116.6-17.4c-25.9-1.4-53.2-5.3-75.2-18c-23.8-13.8-49.2-24.8-76.9-27.7c-17.8-1.9-36.6,0.7-51.4,10.6
	C170.1,69.8,169.8,70,169.6,70.1L169.6,70.1z"/>
</svg>
