<svg id="Layer_1" data-name="Layer 1" xmlns="http://www.w3.org/2000/svg" viewBox="0 0 190.1 25.8"><path d="M190.1,12.5c-1.8,1.4-3.7,2.7-5.6,3.9l-1.6-2.7a46,46,0,0,0,5.3-3.7l1.9,2.5Zm-12.2,7.3a53,53,0,0,1-7,2.6l-.9-3a47.31,47.31,0,0,0,6.6-2.5l1.3,2.9Zm-14.1,4.4c-2.4.5-4.8.8-7.3,1.1l-.3-3.1,7-1.1Zm-14.7,1.6h-2.4c-1.7,0-3.3,0-5-.1l.2-3.2,4.9.1h2.3ZM134.7,22l-.4,3.1L127,24l.5-3.1Zm-14.1-2.5-.7,3.1-7.1-1.7.8-3.1Zm-14-3.6-.9,3-7-2.1.9-3ZM92.8,11.6l-.9,3L85,12.4l.9-3ZM78.9,7.4l-.9,3-6.9-2,.8-3ZM64.8,3.6l-.7,3.1-2.4-.5-4.6-.9.6-3.1,4.7,1A10.93,10.93,0,0,1,64.8,3.6ZM50.4.9,50,4l-7.1-.7L43,.2ZM35.7,3.2l-7.1.3L28.3.4A60.08,60.08,0,0,1,35.7,0ZM21.5,4.4A69.71,69.71,0,0,0,14.6,6l-.9-3A55.53,55.53,0,0,1,21,1.3ZM7.9,8.3a61.42,61.42,0,0,0-6.3,3.1L0,8.6A69.48,69.48,0,0,1,6.7,5.3Z" fill="#fff" opacity="0.25" style="isolation:isolate"/></svg>