<?xml version="1.0" encoding="utf-8"?>
<!-- Generator: Adobe Illustrator 24.2.1, SVG Export Plug-In . SVG Version: 6.00 Build 0)  -->
<svg version="1.1" id="Layer_1" xmlns="http://www.w3.org/2000/svg" xmlns:xlink="http://www.w3.org/1999/xlink" x="0px" y="0px"
	 viewBox="0 0 512 512" style="enable-background:new 0 0 512 512;" xml:space="preserve">
<style type="text/css">
	.st0{fill:url(#SVGID_1_);}
	.st1{fill:url(#SVGID_2_);}
	.st2{fill:#FFFFFF;}
	.st3{fill:url(#SVGID_3_);}
</style>
<linearGradient id="SVGID_1_" gradientUnits="userSpaceOnUse" x1="255.67" y1="116.42" x2="255.67" y2="506.42" gradientTransform="matrix(1 0 0 1 0.34 -84.91)">
	<stop  offset="0" style="stop-color:#C00000;stop-opacity:0.3"/>
	<stop  offset="0.4385" style="stop-color:#F1C8C8;stop-opacity:0.6617"/>
	<stop  offset="0.6369" style="stop-color:#FFFFFF"/>
</linearGradient>
<path class="st0" d="M464.4,30.6H7.5v390.8h497V70.6C504.5,48.5,486.6,30.6,464.4,30.6C464.4,30.6,464.4,30.6,464.4,30.6z"/>
<linearGradient id="SVGID_2_" gradientUnits="userSpaceOnUse" x1="469.08" y1="156.42" x2="469.08" y2="566.42" gradientTransform="matrix(1 0 0 1 0.34 -84.91)">
	<stop  offset="0" style="stop-color:#C00000;stop-opacity:0.3"/>
	<stop  offset="0.4385" style="stop-color:#F1C8C8;stop-opacity:0.6617"/>
	<stop  offset="0.6369" style="stop-color:#FFFFFF"/>
</linearGradient>
<path class="st1" d="M464.4,110.7h-30.1v370.7h30.1c22.1,0,40.1-17.9,40.1-40.1l0,0V70.6C504.5,92.8,486.5,110.7,464.4,110.7z"/>
<path class="st2" d="M45.6,98.7h100.2v90.2H45.6V98.7z"/>
<circle class="st2" cx="221.9" cy="316.1" r="75.1"/>
<path class="st2" d="M398.3,188.9H298.1v-22c0-20.4,12.4-38.8,31.4-46.5c-4.1-4.6-6.3-10.5-6.3-16.7v-10c0-13.8,11.2-25.1,25.1-25.1
	c13.8,0,25,11.2,25,25.1v10c0,6.1-2.2,12.1-6.3,16.7c19,7.6,31.4,26,31.4,46.5L398.3,188.9z"/>
<linearGradient id="SVGID_3_" gradientUnits="userSpaceOnUse" x1="256" y1="23.05" x2="256" y2="489">
	<stop  offset="0" style="stop-color:#C00000"/>
	<stop  offset="0.9469" style="stop-color:#BC1600;stop-opacity:0.91"/>
	<stop  offset="0.9888" style="stop-color:#C32400;stop-opacity:0.9"/>
</linearGradient>
<path class="st3" d="M464.4,23H0v405.8h426.8V489h37.6c26.3,0,47.6-21.4,47.6-47.6V70.6C512,44.4,490.7,23.1,464.4,23z M497,441.4
	c0,18-14.6,32.5-32.6,32.6h-22.6V118.2c14.5-1.5,35.7,5.3,55.1-12.9L497,441.4z M464.4,103.2h-37.6v310.6H15V38.1h449.4
	c18,0.3,32.3,15.2,32,33.1C496.1,88.7,482,102.9,464.4,103.2z M377.7,117.3c4.4-9.4,2.6-16.5,3-23.7c0-18-14.6-32.6-32.6-32.5
	c-18,0-32.5,14.6-32.5,32.5c0.4,7.2-1.3,14.3,3,23.7c-7.9,4.7-14.5,11.2-19.4,18.9h-146V91.2h-30v-4.5c-0.3-15.2-12.9-27.3-28.1-27
	c-14.8,0.3-26.7,12.2-27,27v4.5H38.1v105.2h115.2v-45.1h61.1v82.5c-45.5,4.1-79,44.4-74.8,89.8s44.4,79,89.8,74.8
	c45.5-4.1,79-44.4,74.8-89.8c-3.6-39.7-35.1-71.2-74.8-74.8v-82.5h63.2c-3.4,12.1-1.6,19.1-2.1,45.1h115.3
	C403.5,182,415.7,139.9,377.7,117.3z M83.2,86.7c-0.5-6.9,4.7-12.9,11.6-13.4c6.9-0.5,12.9,4.7,13.4,11.6c0,0.6,0,1.2,0,1.7v4.5h-25
	V86.7z M138.3,181.4H53.1v-75.1h15v20.5h15v-20.5h25v20.5h15v-20.5h15L138.3,181.4z M289.6,316.1c0,37.4-30.3,67.6-67.6,67.6
	s-67.6-30.3-67.6-67.6s30.3-67.6,67.6-67.6c0,0,0,0,0,0C259.3,248.5,289.5,278.8,289.6,316.1z M330.6,93.7c0-9.7,7.8-17.5,17.5-17.5
	c9.7,0,17.5,7.8,17.5,17.5c0,0,0,0,0,0v10c0,9.7-7.8,17.5-17.5,17.5c-9.7,0-17.5-7.8-17.5-17.5c0,0,0,0,0,0V93.7z M390.8,181.4
	h-85.2c1-5.3-6.2-36.8,22.5-52.1c11.8,9.3,28.4,9.3,40.2,0C396.8,144.5,389.8,176.6,390.8,181.4z M229.4,262v14.5H247v15h-34.1
	c-4.7-0.3-8.8,3.2-9.1,7.9c-0.3,4.7,3.2,8.8,7.9,9.1c0.4,0,0.8,0,1.2,0h18c13-0.3,23.8,10.1,24,23.1c0.3,13-10.1,23.8-23.1,24
	c-0.3,0-0.6,0-1,0h-1.5v14.5h-15v-14.5h-17.5v-15H231c4.7,0.3,8.8-3.2,9.1-7.9c0.3-4.7-3.2-8.8-7.9-9.1c-0.4,0-0.8,0-1.2,0h-18
	c-13,0.3-23.8-10.1-24-23.1c-0.3-13,10.1-23.8,23.1-24c0.3,0,0.6,0,1,0h1.5V262H229.4z"/>
</svg>
