<?xml version="1.0" encoding="utf-8"?>
<!-- Generator: Adobe Illustrator 24.2.1, SVG Export Plug-In . SVG Version: 6.00 Build 0)  -->
<svg version="1.1" id="Layer_1" xmlns="http://www.w3.org/2000/svg" xmlns:xlink="http://www.w3.org/1999/xlink" x="0px" y="0px"
	 viewBox="0 0 512 512" style="enable-background:new 0 0 512 512;" xml:space="preserve">
<style type="text/css">
	.st0{fill:url(#SVGID_1_);}
	.st1{fill:url(#SVGID_2_);}
</style>
<linearGradient id="SVGID_1_" gradientUnits="userSpaceOnUse" x1="255.9945" y1="129.998" x2="255.9945" y2="448" gradientTransform="matrix(1 0 0 -1 0 514)">
	<stop  offset="0" style="stop-color:#C00000;stop-opacity:0.3"/>
	<stop  offset="0.2877" style="stop-color:#F1C8C8;stop-opacity:0.6617"/>
	<stop  offset="0.6369" style="stop-color:#FFFFFF"/>
</linearGradient>
<path class="st0" d="M375.5,301.5L366,295v-54.5c0-48.5-33-90.7-80-102.5l20-72H206l20,72c-47,11.8-80,54-80,102.5V295l-9.5,6.5
	c-12.3,8.4-19.6,22.4-19.6,37.3c0,25,20.3,45.2,45.2,45.2h187.5c25,0,45.2-20.3,45.2-45.2v0C395,323.9,387.7,310,375.5,301.5
	L375.5,301.5z"/>
<linearGradient id="SVGID_2_" gradientUnits="userSpaceOnUse" x1="256.0005" y1="391.502" x2="256.0005" y2="58.502">
	<stop  offset="0" style="stop-color:#C00000"/>
	<stop  offset="0.9469" style="stop-color:#BC1600;stop-opacity:0.91"/>
	<stop  offset="0.9888" style="stop-color:#C32400;stop-opacity:0.9"/>
</linearGradient>
<path class="st1" d="M138.5,240.5v50.6l-6.2,4.3c-14.3,9.8-22.8,26.1-22.8,43.4c0,29.1,23.7,52.7,52.7,52.7h187.5
	c29.1,0,52.7-23.7,52.7-52.8c0-17.3-8.5-33.5-22.8-43.4l-6.2-4.3v-50.6c0-49.4-31.8-92.6-78.3-107.6l20.6-74.3H196.2l20.6,74.3
	C170.4,147.8,138.5,191,138.5,240.5L138.5,240.5z M215.9,73.5h80.3l-15.8,57h-48.6L215.9,73.5z M227,145.5h58
	c43.3,11.2,73.5,50.1,73.5,95v58.5l12.7,8.8c10.2,7.1,16.3,18.7,16.3,31.1c0,20.8-16.9,37.7-37.7,37.7H162.2
	c-20.8,0-37.7-16.9-37.7-37.7c0-12.4,6.1-24,16.3-31.1l12.7-8.8v-58.5C153.5,195.6,183.7,156.7,227,145.5L227,145.5z M202,240.5
	c0-18.2,14.8-33,33-33h13.5V179h15v28.5h39v15H235c-9.9,0-18,8.1-18,18s8.1,18,18,18h42c18.2,0,33,14.8,33,33s-14.8,33-33,33h-13.5
	V353h-15v-28.5h-39v-15H277c9.9,0,18-8.1,18-18s-8.1-18-18-18h-42C216.8,273.5,202,258.7,202,240.5z M15,253.5l-15-0.1
	c0.1-5.1,0.3-10.3,0.6-15.4l15,1C15.2,243.8,15.1,248.7,15,253.5L15,253.5z M18.5,297c4.7,27.6,14.2,54,28.1,78.3l-13,7.4
	c-14.8-25.9-24.8-53.9-29.8-83.2L18.5,297z M16.4,282.6l-14.9,1.6c-0.6-5.1-1-10.3-1.2-15.4l15-0.7
	C15.5,272.9,15.9,277.7,16.4,282.6L16.4,282.6z M17,224.5l-14.9-1.9c8-61.1,37.9-117.3,84.3-158.4C133.2,22.8,193.5,0,256,0
	c35.8,0,70.4,7.3,102.9,21.5c25.9,11.4,49.3,26.7,70.1,45.8V36h15v57.5h-57.5v-15H419C374.5,37.4,317.2,15,256,15
	C135.4,15,32.6,105.1,17,224.5L17,224.5z M496.5,241.2l15-0.9c0.3,5.1,0.5,10.3,0.5,15.4l-15,0C497,250.9,496.8,246,496.5,241.2
	L496.5,241.2z M493,212.3l14.8-2.7c0.9,5.1,1.7,10.2,2.3,15.3l-14.9,1.8C494.6,221.9,493.9,217.1,493,212.3L493,212.3z M496.6,270.3
	l15,0.9C503.7,406.2,391.4,512,256,512c-72.4,0-140-30-188.5-82.8V459h-15v-57.5H110v15H76.2C122,467.8,186.7,497,256,497
	C383.5,497,489.1,397.4,496.6,270.3L496.6,270.3z M490,198.1c-6.9-27.9-18.6-54.1-34.9-77.9l12.4-8.5c17.3,25.3,29.7,53.1,37,82.7
	L490,198.1z"/>
</svg>
