<?xml version="1.0" encoding="utf-8"?>
<!-- Generator: Adobe Illustrator 24.2.1, SVG Export Plug-In . SVG Version: 6.00 Build 0)  -->
<svg version="1.1" id="Layer_1" xmlns="http://www.w3.org/2000/svg" xmlns:xlink="http://www.w3.org/1999/xlink" x="0px" y="0px"
	 viewBox="0 0 512 512" style="enable-background:new 0 0 512 512;" xml:space="preserve">
<style type="text/css">
	.st0{fill:url(#SVGID_1_);}
	.st1{fill:url(#SVGID_2_);}
	.st2{fill:url(#SVGID_3_);}
</style>
<linearGradient id="SVGID_1_" gradientUnits="userSpaceOnUse" x1="130.7999" y1="161.4012" x2="130.7999" y2="461.4012" gradientTransform="matrix(1.002 0 0 1.002 0.6885 -86.024)">
	<stop  offset="0" style="stop-color:#C00000;stop-opacity:0.7"/>
	<stop  offset="0.1704" style="stop-color:#D55757;stop-opacity:0.6952"/>
	<stop  offset="0.3883" style="stop-color:#F1C8C8;stop-opacity:0.6617"/>
	<stop  offset="0.6369" style="stop-color:#FFFFFF"/>
</linearGradient>
<path class="st0" d="M246,302.1c-27.7,0-50.1-22.4-50.1-50.1s22.4-50.1,50.1-50.1c3.4,0,6.8,0.3,10,1v-67.1h-75.1
	c0.7-3.3,1-6.7,1-10c0-27.7-22.4-50.1-50.1-50.1s-50.1,22.4-50.1,50.1c0,3.4,0.3,6.8,1,10H7.5v240.5h75.1c-0.7-3.3-1-6.7-1-10
	c0-27.7,22.4-50.1,50.1-50.1s50.1,22.4,50.1,50.1c0,3.4-0.3,6.8-1,10H256v-75.1C252.7,301.8,249.3,302.1,246,302.1z"/>
<linearGradient id="SVGID_2_" gradientUnits="userSpaceOnUse" x1="348.8139" y1="521.2814" x2="348.8139" y2="221.3812" gradientTransform="matrix(1.002 0 0 1.002 0.6885 -86.024)">
	<stop  offset="0" style="stop-color:#C00000;stop-opacity:0.3"/>
	<stop  offset="0.2877" style="stop-color:#F1C8C8;stop-opacity:0.6617"/>
	<stop  offset="0.6369" style="stop-color:#FFFFFF"/>
</linearGradient>
<path class="st1" d="M504.5,135.8h-75.1c0.7,3.3,1,6.7,1,10c0,27.7-22.4,50.1-50.1,50.1s-50.1-22.4-50.1-50.1c0-3.4,0.3-6.8,1-10
	H256v67.1c-3.3-0.7-6.7-1-10-1c-27.7,0-50.1,22.4-50.1,50.1s22.4,50.1,50.1,50.1c3.4,0,6.8-0.3,10-1v75.1h75.1c-0.7,3.3-1,6.7-1,10
	c0,27.7,22.4,50.1,50.1,50.1s50.1-22.4,50.1-50.1c0-3.4-0.3-6.8-1-10h75.1L504.5,135.8L504.5,135.8z"/>
<linearGradient id="SVGID_3_" gradientUnits="userSpaceOnUse" x1="256" y1="436.9635" x2="256" y2="75.0383">
	<stop  offset="0" style="stop-color:#C00000"/>
	<stop  offset="0.9469" style="stop-color:#BC1600;stop-opacity:0.91"/>
	<stop  offset="0.9888" style="stop-color:#C32400;stop-opacity:0.9"/>
</linearGradient>
<path class="st2" d="M512,128.3h-91.9l1.8,9c5.4,26.5-15,51.1-41.7,51.1c-26.8,0-47.1-24.6-41.7-51.1l1.8-9h-151
	c1.4-32.7-24.8-60.1-57.6-60.1c-32.7,0-59,27.4-57.6,60.1H0v255.5h91.9c-1.3-7.2-2.7-11-2.7-17.5c0-23.5,19.1-42.6,42.6-42.6
	s42.6,19.1,42.6,42.6c0,6.5-1.3,10.2-2.7,17.5h151c-1.4,32.7,24.8,60.1,57.6,60.1c32.7,0,59-27.4,57.6-60.1H512V128.3z M189.3,368.7
	c1.4-32.7-24.8-60.1-57.6-60.1c-32.7,0-59,27.4-57.6,60.1H15V143.3h76.8l-1.8-9c-5.4-26.5,15-51.1,41.7-51.1
	c26.8,0,47.1,24.6,41.7,51.1l-1.8,9h76.8v51.2c-32.7-1.4-60.1,24.8-60.1,57.6c0,31.8,25.8,57.6,57.6,57.6c0.8,0,1.7,0,2.5-0.1v59.2
	h-59.1V368.7z M497,368.7h-76.8c1.3,7.2,2.7,11,2.7,17.5c0,23.5-19.1,42.6-42.6,42.6s-42.6-19.1-42.6-42.6c0-6.5,1.3-10.2,2.7-17.5
	h-76.8v-76.8c-7.2,1.3-11,2.7-17.5,2.7c-23.5,0-42.6-19.1-42.6-42.6c0-26.8,24.6-47.1,51.1-41.7l9,1.8v-68.8h59.2
	c-1.4,32.7,24.8,60.1,57.6,60.1c32.7,0,59-27.4,57.6-60.1h59V368.7z M412.8,306.1c0,13-10.6,23.5-23.5,23.5h-1.5v14.5h-15v-14.5
	h-17.5v-15h34.1c11.3,0,11.3-17,0-17h-18c-13,0-23.5-10.6-23.5-23.5s10.6-23.5,23.5-23.5h1.5V236h15v14.5h17.5v15h-34.1
	c-4.7,0-8.5,3.8-8.5,8.5s3.8,8.5,8.5,8.5h18C402.2,282.6,412.8,293.1,412.8,306.1z M164.3,238c0,13-10.6,23.5-23.5,23.5h-1.5V276
	h-15v-14.5h-17.5v-15h34.1c11.3,0,11.3-17,0-17h-18c-13,0-23.5-10.6-23.5-23.5c0-13,10.6-23.5,23.5-23.5h1.5V168h15v14.5h17.5v15
	h-34.1c-11.3,0-11.3,17,0,17h18C153.8,214.4,164.3,225,164.3,238z M263.5,94.7h-15V64.6h15V94.7z M224.6,110l-20-20l10.6-10.6l20,20
	L224.6,110z M287.4,110l-10.6-10.6l20-20L307.4,90L287.4,110z M248.5,417.3h15v30.1h-15V417.3z M224.6,402l10.6,10.6l-20,20
	L204.6,422L224.6,402z M287.4,402l20,20l-10.6,10.6l-20-20L287.4,402z"/>
</svg>
