<?xml version="1.0" encoding="utf-8"?>
<!-- Generator: Adobe Illustrator 24.2.1, SVG Export Plug-In . SVG Version: 6.00 Build 0)  -->
<svg version="1.1" id="Layer_1" xmlns="http://www.w3.org/2000/svg" xmlns:xlink="http://www.w3.org/1999/xlink" x="0px" y="0px"
	 viewBox="0 0 512 512" style="enable-background:new 0 0 512 512;" xml:space="preserve">
<style type="text/css">
	.st0{fill:url(#SVGID_1_);}
	.st1{fill:url(#SVGID_2_);}
	.st2{fill:url(#SVGID_3_);}
	.st3{fill:url(#SVGID_4_);}
	.st4{fill:url(#SVGID_5_);}
	.st5{fill:#FFFFFF;}
	.st6{fill:url(#SVGID_6_);}
</style>
<linearGradient id="SVGID_1_" gradientUnits="userSpaceOnUse" x1="256" y1="7" x2="256" y2="337" gradientTransform="matrix(1 0 0 -1 0 428)">
	<stop  offset="0" style="stop-color:#C00000;stop-opacity:0.8"/>
	<stop  offset="0.1537" style="stop-color:#CE3737;stop-opacity:0.9816"/>
	<stop  offset="0.3827" style="stop-color:#E59696;stop-opacity:0.9362"/>
	<stop  offset="0.9469" style="stop-color:#FFFFFF;stop-opacity:0.91"/>
</linearGradient>
<circle class="st0" cx="256" cy="256" r="165"/>
<linearGradient id="SVGID_2_" gradientUnits="userSpaceOnUse" x1="81.5" y1="395.5" x2="81.5" y2="295.5" gradientTransform="matrix(1 0 0 -1 0 428)">
	<stop  offset="0" style="stop-color:#C00000;stop-opacity:0.3"/>
	<stop  offset="0.2877" style="stop-color:#F1C8C8;stop-opacity:0.6617"/>
	<stop  offset="0.6369" style="stop-color:#FFFFFF"/>
</linearGradient>
<circle class="st1" cx="81.5" cy="82.5" r="50"/>
<linearGradient id="SVGID_3_" gradientUnits="userSpaceOnUse" x1="431.5" y1="395.5" x2="431.5" y2="295.5" gradientTransform="matrix(1 0 0 -1 0 428)">
	<stop  offset="0" style="stop-color:#C00000;stop-opacity:0.3"/>
	<stop  offset="0.2877" style="stop-color:#F1C8C8;stop-opacity:0.6617"/>
	<stop  offset="0.6369" style="stop-color:#FFFFFF"/>
</linearGradient>
<circle class="st2" cx="431.5" cy="82.5" r="50"/>
<linearGradient id="SVGID_4_" gradientUnits="userSpaceOnUse" x1="81.5" y1="47.5" x2="81.5" y2="-52.5" gradientTransform="matrix(1 0 0 -1 0 428)">
	<stop  offset="0" style="stop-color:#C00000;stop-opacity:0.3"/>
	<stop  offset="0.2877" style="stop-color:#F1C8C8;stop-opacity:0.6617"/>
	<stop  offset="0.6369" style="stop-color:#FFFFFF"/>
</linearGradient>
<circle class="st3" cx="81.5" cy="430.5" r="50"/>
<linearGradient id="SVGID_5_" gradientUnits="userSpaceOnUse" x1="431.5" y1="47.5" x2="431.5" y2="-52.5" gradientTransform="matrix(1 0 0 -1 0 428)">
	<stop  offset="0" style="stop-color:#C00000;stop-opacity:0.3"/>
	<stop  offset="0.2877" style="stop-color:#F1C8C8;stop-opacity:0.6617"/>
	<stop  offset="0.6369" style="stop-color:#FFFFFF"/>
</linearGradient>
<circle class="st4" cx="431.5" cy="430.5" r="50"/>
<g>
	<circle class="st5" cx="81.5" cy="82.5" r="15"/>
	<circle class="st5" cx="81.5" cy="430.5" r="15"/>
	<circle class="st5" cx="431.5" cy="82.5" r="15"/>
	<circle class="st5" cx="431.5" cy="430.5" r="15"/>
</g>
<linearGradient id="SVGID_6_" gradientUnits="userSpaceOnUse" x1="256" y1="21.9681" x2="256" y2="21.1943">
	<stop  offset="0" style="stop-color:#C00000"/>
	<stop  offset="0.9469" style="stop-color:#BC1600;stop-opacity:0.91"/>
	<stop  offset="0.9888" style="stop-color:#C32400;stop-opacity:0.9"/>
</linearGradient>
<path class="st6" d="M148.1,40.3l-6.7-13.4c4.6-2.3,9.3-4.5,14-6.5l5.9,13.8C156.9,36.1,152.5,38.2,148.1,40.3L148.1,40.3z
	 M370.1,26.7c-4.6-2.3-9.3-4.5-14-6.5L350.2,34c4.4,1.9,8.9,3.9,13.2,6.1L370.1,26.7z M256,15c27.7,0,54.8,4.6,80.6,13.7l5-14.1
	C314.2,4.9,285.4,0,256,0c-29.6,0-58.6,5-86.2,14.8l5,14.1C200.8,19.7,228.1,15,256,15z M142,485.4c4.6,2.3,9.3,4.5,14,6.5l5.9-13.8
	c-4.5-1.9-8.9-3.9-13.2-6.1L142,485.4z M256,497c-27.7,0-54.8-4.6-80.5-13.7l-5,14.1c27.4,9.7,56.1,14.6,85.5,14.6
	c29.6,0,58.7-5,86.2-14.8l-5-14.1C311.2,492.3,283.9,497,256,497z M350.7,477.8l5.9,13.8c4.7-2,9.4-4.2,14-6.5l-6.7-13.4
	C359.6,473.8,355.2,475.8,350.7,477.8L350.7,477.8z M40.1,363.3c-1.9-3.9-3.8-7.9-5.5-11.9l-13.8,5.9c1.8,4.3,3.8,8.5,5.9,12.6
	L40.1,363.3z M15,256c0-27.4,4.5-54.3,13.5-79.8l-14.2-5C4.8,198.4,0,226.9,0,256c0,29.9,5.1,59.2,15.1,87l14.1-5.1
	C19.8,311.8,15,284.2,15,256z M39.7,149.4l-13.4-6.6c-2.3,4.6-4.4,9.3-6.4,14.1l13.8,5.8C35.6,158.2,37.6,153.8,39.7,149.4
	L39.7,149.4z M472.5,149.9c2.1,4.4,4.1,8.8,6,13.2l13.8-5.8c-2-4.8-4.1-9.5-6.4-14.1L472.5,149.9z M497.9,171.8l-14.2,4.9
	c8.8,25.4,13.3,52,13.3,79.2c0,28.4-4.9,56.2-14.4,82.5l14.1,5.1c10.2-28,15.3-57.4,15.3-87.6C512,227.1,507.3,198.8,497.9,171.8
	L497.9,171.8z M472.2,362.8l13.4,6.7c1.9-3.8,3.6-7.6,5.3-11.5l-13.8-6C475.6,355.6,474,359.2,472.2,362.8L472.2,362.8z M428.5,256
	c0,95.1-77.4,172.5-172.5,172.5S83.5,351.1,83.5,256S160.9,83.5,256,83.5S428.5,160.9,428.5,256z M150.1,139.6
	c7.6,6.9,15.8,13.1,24.6,18.4c3.1-7.9,6.5-15.3,10.4-22.3c6.4-11.6,13.5-21.3,21.3-29.2C185.3,113.5,166.1,124.9,150.1,139.6
	L150.1,139.6z M98.7,248.5h58.9c0.6-27,4.8-53,12-76.1c-10.8-6.3-21-13.7-30.2-22.2C115.6,176.4,100.5,210.7,98.7,248.5L98.7,248.5z
	 M142.5,365.1c8.9-7.8,18.5-14.6,28.8-20.4c-8.3-24.4-13-52.2-13.7-81.2H98.7C100.5,302.8,116.9,338.5,142.5,365.1L142.5,365.1z
	 M206.4,405.5c-7.7-7.9-14.9-17.6-21.3-29.2c-3-5.5-5.8-11.3-8.4-17.4c-8.2,4.8-16,10.3-23.2,16.6
	C168.8,388.6,186.7,398.9,206.4,405.5L206.4,405.5z M248.5,337.7c-20.4,1-40.2,5.8-58.5,14.3c2.5,6,5.2,11.7,8.2,17.1
	c14,25.3,31.6,40.6,50.3,43.8V337.7z M248.5,263.5h-75.9c0.7,26.6,4.9,52,12.2,74.3c19.9-9,41.5-14.2,63.7-15.1V263.5z M248.5,195.3
	c-22.9-1-45-6.4-65.3-15.9c-6.3,21-9.9,44.5-10.6,69h75.9V195.3z M248.5,99.2c-18.7,3.2-36.3,18.5-50.3,43.8
	c-3.8,6.9-7.2,14.3-10.2,22.2c18.8,9,39.2,14.2,60.5,15.2V99.2z M305.6,106.5c7.7,7.9,14.9,17.6,21.3,29.2c3.8,7,7.3,14.4,10.4,22.3
	c8.8-5.3,17-11.5,24.6-18.4C345.9,124.9,326.7,113.5,305.6,106.5z M263.5,180.3c21.3-1,41.7-6.2,60.5-15.2
	c-3-7.9-6.4-15.3-10.2-22.2c-14-25.3-31.6-40.6-50.3-43.8V180.3z M263.5,248.5h75.9c-0.6-24.5-4.2-48-10.6-69
	c-20.3,9.5-42.4,14.9-65.3,15.9V248.5L263.5,248.5z M263.5,322.7c22.2,1,43.8,6.1,63.7,15.1c7.3-22.3,11.5-47.7,12.2-74.3h-75.9
	L263.5,322.7L263.5,322.7z M313.8,369.1c3-5.4,5.7-11.1,8.2-17.1c-18.2-8.4-38-13.3-58.5-14.3v75.2
	C282.2,409.6,299.8,394.4,313.8,369.1L313.8,369.1z M358.5,375.4c-7.2-6.2-15-11.8-23.2-16.6c-2.6,6.1-5.4,11.9-8.4,17.4
	c-6.4,11.6-13.5,21.3-21.3,29.2C325.3,398.9,343.2,388.7,358.5,375.4L358.5,375.4z M413.3,263.5h-58.9c-0.7,29-5.4,56.8-13.7,81.2
	c10.3,5.8,19.9,12.6,28.8,20.4C395.1,338.5,411.5,302.8,413.3,263.5L413.3,263.5z M413.3,248.5c-1.8-37.8-16.9-72.1-40.8-98.3
	c-9.2,8.5-19.3,15.9-30.2,22.2c7.3,23.1,11.4,49.1,12,76.1H413.3z M24,82.5C24,50.8,49.8,25,81.5,25S139,50.8,139,82.5
	S113.2,140,81.5,140S24,114.2,24,82.5z M39,82.5c0,23.4,19.1,42.5,42.5,42.5S124,105.9,124,82.5S104.9,40,81.5,40S39,59.1,39,82.5z
	 M374,82.5c0-31.7,25.8-57.5,57.5-57.5S489,50.8,489,82.5S463.2,140,431.5,140S374,114.2,374,82.5z M389,82.5
	c0,23.4,19.1,42.5,42.5,42.5S474,105.9,474,82.5S454.9,40,431.5,40S389,59.1,389,82.5z M139,430.5c0,31.7-25.8,57.5-57.5,57.5
	S24,462.2,24,430.5S49.8,373,81.5,373S139,398.8,139,430.5z M124,430.5c0-23.4-19.1-42.5-42.5-42.5S39,407.1,39,430.5
	S58.1,473,81.5,473S124,453.9,124,430.5z M489,430.5c0,31.7-25.8,57.5-57.5,57.5S374,462.2,374,430.5s25.8-57.5,57.5-57.5
	S489,398.8,489,430.5z M474,430.5c0-23.4-19.1-42.5-42.5-42.5S389,407.1,389,430.5s19.1,42.5,42.5,42.5S474,453.9,474,430.5z
	 M59,82.5C59,70.1,69.1,60,81.5,60S104,70.1,104,82.5S93.9,105,81.5,105S59,94.9,59,82.5z M74,82.5c0,4.1,3.4,7.5,7.5,7.5
	s7.5-3.4,7.5-7.5S85.6,75,81.5,75S74,78.4,74,82.5z M104,430.5c0,12.4-10.1,22.5-22.5,22.5S59,442.9,59,430.5S69.1,408,81.5,408
	S104,418.1,104,430.5z M89,430.5c0-4.1-3.4-7.5-7.5-7.5s-7.5,3.4-7.5,7.5s3.4,7.5,7.5,7.5S89,434.6,89,430.5z M409,82.5
	c0-12.4,10.1-22.5,22.5-22.5S454,70.1,454,82.5S443.9,105,431.5,105S409,94.9,409,82.5z M424,82.5c0,4.1,3.4,7.5,7.5,7.5
	s7.5-3.4,7.5-7.5s-3.4-7.5-7.5-7.5S424,78.4,424,82.5z M454,430.5c0,12.4-10.1,22.5-22.5,22.5S409,442.9,409,430.5
	s10.1-22.5,22.5-22.5S454,418.1,454,430.5z M439,430.5c0-4.1-3.4-7.5-7.5-7.5s-7.5,3.4-7.5,7.5s3.4,7.5,7.5,7.5S439,434.6,439,430.5
	z"/>
</svg>
