<?xml version="1.0" encoding="utf-8"?>
<!-- Generator: Adobe Illustrator 24.2.1, SVG Export Plug-In . SVG Version: 6.00 Build 0)  -->
<svg version="1.1" id="Layer_1" xmlns="http://www.w3.org/2000/svg" xmlns:xlink="http://www.w3.org/1999/xlink" x="0px" y="0px"
	 viewBox="0 0 512 512" style="enable-background:new 0 0 512 512;" xml:space="preserve">
<style type="text/css">
	.st0{fill:url(#SVGID_1_);}
	.st1{fill:url(#SVGID_2_);}
	.st2{fill:url(#SVGID_3_);}
</style>
<linearGradient id="SVGID_1_" gradientUnits="userSpaceOnUse" x1="257.92" y1="453.04" x2="257.92" y2="233.04" gradientTransform="matrix(1 0 0 1 -0.17 -86.54)">
	<stop  offset="0" style="stop-color:#C00000;stop-opacity:0.3"/>
	<stop  offset="0.2877" style="stop-color:#F1C8C8;stop-opacity:0.6617"/>
	<stop  offset="0.6369" style="stop-color:#FFFFFF"/>
</linearGradient>
<circle class="st0" cx="257.8" cy="256.3" r="109.9"/>
<linearGradient id="SVGID_2_" gradientUnits="userSpaceOnUse" x1="255.75" y1="442.57" x2="255.75" y2="375.63">
	<stop  offset="0" style="stop-color:#C00000;stop-opacity:0.3"/>
	<stop  offset="0.2877" style="stop-color:#F1C8C8;stop-opacity:0.6617"/>
	<stop  offset="0.6369" style="stop-color:#FFFFFF"/>
</linearGradient>
<path class="st1" d="M127.4,102.9c0,18.5-15,33.5-33.5,33.5s-33.5-15-33.5-33.5s15-33.5,33.5-33.5h0
	C112.4,69.4,127.4,84.4,127.4,102.9z M255.8,7.5c-18.5,0-33.5,15-33.5,33.5c0,18.5,15,33.5,33.5,33.5c18.5,0,33.4-15,33.5-33.4
	C289.2,22.5,274.3,7.5,255.8,7.5C255.8,7.5,255.8,7.5,255.8,7.5z M255.8,437.6c-18.5,0-33.5,15-33.5,33.5c0,18.5,15,33.5,33.5,33.5
	s33.5-15,33.5-33.5c0,0,0,0,0,0C289.2,452.5,274.2,437.6,255.8,437.6L255.8,437.6z M421.6,69.4c-18.5,0-33.5,15-33.5,33.5
	s15,33.5,33.5,33.5s33.5-15,33.5-33.5S440.1,69.4,421.6,69.4L421.6,69.4z M93.9,375.1c-18.5,0-33.5,15-33.5,33.5s15,33.5,33.5,33.5
	s33.5-15,33.5-33.5S112.4,375.1,93.9,375.1L93.9,375.1z M421.6,375.1c-18.5,0-33.5,15-33.5,33.5s15,33.5,33.5,33.5
	s33.5-15,33.5-33.5S440.1,375.1,421.6,375.1L421.6,375.1z M504.3,256c0-18.5-15-33.5-33.5-33.5s-33.5,15-33.5,33.5
	s15,33.5,33.5,33.5C489.3,289.5,504.3,274.5,504.3,256z M74.2,256c0-18.5-15-33.5-33.5-33.5S7.2,237.5,7.2,256
	c0,18.5,15,33.5,33.5,33.5C59.2,289.5,74.2,274.5,74.2,256z"/>
<linearGradient id="SVGID_3_" gradientUnits="userSpaceOnUse" x1="256.0666" y1="231.6463" x2="256.0666" y2="280.9753">
	<stop  offset="0" style="stop-color:#C00000"/>
	<stop  offset="0.9469" style="stop-color:#BC1600;stop-opacity:0.91"/>
	<stop  offset="0.9888" style="stop-color:#C32400;stop-opacity:0.9"/>
</linearGradient>
<path class="st2" d="M258.5,138.9c-64.8,0-117.4,52.5-117.4,117.4s52.5,117.4,117.4,117.4c64.8,0,117.4-52.5,117.4-117.4
	c0,0,0,0,0,0C375.8,191.4,323.3,138.9,258.5,138.9z M217,162.6c-2.9,3.9-5.6,8-7.9,12.3c-2.2,4-4.2,8.1-5.9,12.3
	c-4-2.6-7.8-5.5-11.5-8.6C199.3,172.1,207.8,166.7,217,162.6z M181.1,189.3c5.3,4.6,10.9,8.8,16.9,12.4c-4.5,15.3-7,31.1-7.5,47
	h-34.2C158,226.8,166.6,205.9,181.1,189.3z M156.4,263.7h34.2c0.5,17.1,3.4,34.1,8.5,50.4c-5.6,3.3-11,7.1-16,11.3
	C167.5,308.5,158,286.7,156.4,263.7L156.4,263.7z M194.1,335.8c3.3-2.7,6.8-5.2,10.4-7.4c1.4,3.1,2.9,6.2,4.6,9.2
	c2.3,4.3,5,8.4,7.9,12.3C208.8,346.2,201.1,341.5,194.1,335.8L194.1,335.8z M251,357.6c-13.1-3.8-24.8-17.1-33.1-36.2
	c10.5-4.5,21.7-7.3,33.1-8.1V357.6z M251,298.3c-13.2,0.8-26.1,3.9-38.3,9c-4.2-14.2-6.7-28.8-7.2-43.6H251V298.3L251,298.3z
	 M251,248.8h-45.5c0.5-13.5,2.6-26.9,6.1-40c12.5,5.4,25.8,8.6,39.3,9.5V248.8L251,248.8z M251,203.2c-11.9-0.8-23.6-3.8-34.5-8.7
	c8.3-20.8,20.7-35.6,34.5-39.6V203.2z M360.6,248.8h-34.2c-0.5-15.9-3-31.7-7.5-47c6-3.6,11.7-7.8,17-12.4
	C350.4,206,359,226.8,360.6,248.8L360.6,248.8z M325.3,178.7c-3.6,3.1-7.4,6-11.5,8.6c-1.7-4.2-3.7-8.3-5.9-12.3
	c-2.3-4.3-5-8.4-7.9-12.3C309.1,166.7,317.7,172.1,325.3,178.7z M266,154.9c13.9,4,26.2,18.7,34.5,39.6c-10.9,4.9-22.6,7.9-34.5,8.7
	V154.9z M266,218.2c13.6-0.8,26.9-4,39.3-9.4c3.6,13.1,5.6,26.5,6.1,40H266V218.2z M266,263.7h45.5c-0.5,14.8-2.9,29.4-7.2,43.6
	c-12.2-5.1-25.1-8.2-38.3-9V263.7z M266,357.6v-44.3c11.4,0.8,22.6,3.6,33.1,8.1C290.8,340.4,279.1,353.8,266,357.6z M300,349.9
	c2.9-3.9,5.6-8,7.9-12.3c1.6-2.9,3.1-6,4.6-9.2c3.6,2.3,7.1,4.7,10.4,7.4C315.9,341.5,308.2,346.2,300,349.9z M333.9,325.5
	c-5-4.2-10.4-8-16-11.3c5.2-16.3,8-33.3,8.5-50.4h34.2C359,286.8,349.5,308.5,333.9,325.5L333.9,325.5z M94.2,143.9
	c8.3,0,16.5-2.5,23.3-7.3l32.5,31l10.3-10.8L128,125.9c12.7-18.7,7.8-44.2-11-56.9s-44.2-7.8-56.9,11s-7.8,44.2,11,56.9
	C77.9,141.5,85.9,143.9,94.2,143.9L94.2,143.9z M94.2,76.9c14.4,0,26,11.6,26,26s-11.6,26-26,26s-26-11.6-26-26S79.8,76.9,94.2,76.9
	z M248.5,81.2v35.2h15V81.2c22.3-4.1,37-25.5,32.8-47.8c-4.1-22.3-25.5-37-47.8-32.8s-37,25.5-32.8,47.8
	C218.8,65.1,231.8,78.1,248.5,81.2z M256,15c14.4,0,26,11.6,26,26s-11.6,26-26,26s-26-11.6-26-26S241.6,15,256,15z M263.5,430.8
	v-34.7h-15v34.7c-22.3,4.1-37,25.5-32.8,47.8s25.5,37,47.8,32.8c22.3-4.1,37-25.5,32.8-47.8C293.2,446.9,280.2,433.9,263.5,430.8z
	 M256,497c-14.4,0-26-11.6-26-26s11.6-26,26-26s26,11.6,26,26S270.4,497,256,497L256,497z M421.8,367.6c-10.5,0-20.7,4.1-28.3,11.4
	l-30.9-29.5l-10.3,10.9l32.4,30.9c-9.6,20.5-0.7,44.9,19.8,54.5c20.5,9.6,44.9,0.7,54.5-19.8c9.6-20.5,0.7-44.9-19.8-54.5
	C433.8,368.9,427.8,367.6,421.8,367.6z M421.8,434.6c-14.4,0-26-11.6-26-26s11.6-26,26-26s26,11.6,26,26
	C447.8,422.9,436.2,434.6,421.8,434.6L421.8,434.6z M471,215c-19.2,0-35.8,13.3-40,32h-32.6v15h32.2c3.3,22.4,24.2,37.9,46.6,34.6
	c22.4-3.3,37.9-24.2,34.6-46.6C508.7,229.9,491.4,215,471,215z M471,282c-14.4,0-26-11.6-26-26s11.6-26,26-26s26,11.6,26,26
	S485.4,282,471,282L471,282z M81.5,262h37.2v-15H80.9c-5-22-26.9-35.9-48.9-30.9c-22,5-35.9,26.9-30.9,48.9S28,300.9,50,295.9
	C66.5,292.2,79,278.7,81.5,262z M41,282c-14.4,0-26-11.6-26-26s11.6-26,26-26s26,11.6,26,26S55.4,282,41,282L41,282z M152,347.1
	l-31.6,30.1c-17.4-14.5-43.3-12.1-57.7,5.3c-14.5,17.4-12.1,43.3,5.3,57.7c17.4,14.5,43.3,12.1,57.7-5.3c10.8-13,12.6-31.4,4.3-46.2
	l32.3-30.8L152,347.1z M94.2,434.6c-14.4,0-26-11.6-26-26s11.6-26,26-26s26,11.6,26,26C120.2,423,108.5,434.6,94.2,434.6
	C94.2,434.6,94.2,434.6,94.2,434.6L94.2,434.6z M364.7,165l31.6-30.1c17.7,14.1,43.5,11.3,57.6-6.4s11.3-43.5-6.4-57.6
	c-17.7-14.1-43.5-11.3-57.6,6.4c-10.6,13.2-11.9,31.6-3.4,46.3l-32.1,30.6L364.7,165z M421.8,76.9c14.4,0,26,11.6,26,26
	s-11.6,26-26,26s-26-11.6-26-26C395.8,88.6,407.5,76.9,421.8,76.9L421.8,76.9z"/>
</svg>
