<?xml version="1.0" encoding="utf-8"?>
<!-- Generator: Adobe Illustrator 24.2.1, SVG Export Plug-In . SVG Version: 6.00 Build 0)  -->
<svg version="1.1" id="Layer_1" xmlns="http://www.w3.org/2000/svg" xmlns:xlink="http://www.w3.org/1999/xlink" x="0px" y="0px"
	 viewBox="0 0 512 512" style="enable-background:new 0 0 512 512;" xml:space="preserve">
<style type="text/css">
	.st0{fill:url(#SVGID_1_);}
	.st1{fill:url(#SVGID_2_);}
	.st2{fill:url(#SVGID_3_);}
	.st3{fill:url(#SVGID_4_);}
	.st4{fill:url(#SVGID_5_);}
	.st5{fill:url(#SVGID_6_);}
	.st6{fill:url(#SVGID_7_);}
	.st7{fill:url(#SVGID_8_);}
</style>
<linearGradient id="SVGID_1_" gradientUnits="userSpaceOnUse" x1="254.752" y1="422.2794" x2="254.752" y2="252.3193" gradientTransform="matrix(1.002 0 0 1.002 0.6885 -86.024)">
	<stop  offset="0" style="stop-color:#C00000;stop-opacity:0.8"/>
	<stop  offset="0.2095" style="stop-color:#CE3737;stop-opacity:0.9816"/>
	<stop  offset="0.5336" style="stop-color:#E59696;stop-opacity:0.9362"/>
	<stop  offset="0.9469" style="stop-color:#FFFFFF;stop-opacity:0.91"/>
</linearGradient>
<path class="st0" d="M306.1,196.9v-30.1H205.9v60.1h-90.2v110.2h280.5V196.9H306.1z"/>
<linearGradient id="SVGID_2_" gradientUnits="userSpaceOnUse" x1="56.7979" y1="233.3572" x2="56.7979" y2="133.3572" gradientTransform="matrix(1.002 0 0 1.002 0.6885 -86.024)">
	<stop  offset="0" style="stop-color:#C00000;stop-opacity:0.3"/>
	<stop  offset="0.2877" style="stop-color:#F1C8C8;stop-opacity:0.6617"/>
	<stop  offset="0.6369" style="stop-color:#FFFFFF"/>
</linearGradient>
<circle class="st1" cx="57.6" cy="97.7" r="50.1"/>
<linearGradient id="SVGID_3_" gradientUnits="userSpaceOnUse" x1="56.7979" y1="549.3253" x2="56.7979" y2="449.3253" gradientTransform="matrix(1.002 0 0 1.002 0.6885 -86.024)">
	<stop  offset="0" style="stop-color:#C00000;stop-opacity:0.3"/>
	<stop  offset="0.2877" style="stop-color:#F1C8C8;stop-opacity:0.6617"/>
	<stop  offset="0.6369" style="stop-color:#FFFFFF"/>
</linearGradient>
<circle class="st2" cx="57.6" cy="414.3" r="50.1"/>
<linearGradient id="SVGID_4_" gradientUnits="userSpaceOnUse" x1="452.8059" y1="233.3572" x2="452.8059" y2="133.3572" gradientTransform="matrix(1.002 0 0 1.002 0.6885 -86.024)">
	<stop  offset="0" style="stop-color:#C00000;stop-opacity:0.3"/>
	<stop  offset="0.2877" style="stop-color:#F1C8C8;stop-opacity:0.6617"/>
	<stop  offset="0.6369" style="stop-color:#FFFFFF"/>
</linearGradient>
<circle class="st3" cx="454.4" cy="97.7" r="50.1"/>
<linearGradient id="SVGID_5_" gradientUnits="userSpaceOnUse" x1="452.8059" y1="549.3253" x2="452.8059" y2="449.3253" gradientTransform="matrix(1.002 0 0 1.002 0.6885 -86.024)">
	<stop  offset="0" style="stop-color:#C00000;stop-opacity:0.3"/>
	<stop  offset="0.2877" style="stop-color:#F1C8C8;stop-opacity:0.6617"/>
	<stop  offset="0.6369" style="stop-color:#FFFFFF"/>
</linearGradient>
<circle class="st4" cx="454.4" cy="414.3" r="50.1"/>
<linearGradient id="SVGID_6_" gradientUnits="userSpaceOnUse" x1="254.8019" y1="193.3373" x2="254.8019" y2="93.3373" gradientTransform="matrix(1.002 0 0 1.002 0.6885 -86.024)">
	<stop  offset="0" style="stop-color:#C00000;stop-opacity:0.3"/>
	<stop  offset="0.2877" style="stop-color:#F1C8C8;stop-opacity:0.6617"/>
	<stop  offset="0.6369" style="stop-color:#FFFFFF"/>
</linearGradient>
<circle class="st5" cx="256" cy="57.6" r="50.1"/>
<linearGradient id="SVGID_7_" gradientUnits="userSpaceOnUse" x1="254.8019" y1="589.3453" x2="254.8019" y2="489.3453" gradientTransform="matrix(1.002 0 0 1.002 0.6885 -86.024)">
	<stop  offset="0" style="stop-color:#C00000;stop-opacity:0.3"/>
	<stop  offset="0.2877" style="stop-color:#F1C8C8;stop-opacity:0.6617"/>
	<stop  offset="0.6369" style="stop-color:#FFFFFF"/>
</linearGradient>
<circle class="st6" cx="256" cy="454.4" r="50.1"/>
<linearGradient id="SVGID_8_" gradientUnits="userSpaceOnUse" x1="256" y1="199.4" x2="256" y2="214.4">
	<stop  offset="0" style="stop-color:#C00000"/>
	<stop  offset="0.9469" style="stop-color:#BC1600;stop-opacity:0.91"/>
	<stop  offset="0.9888" style="stop-color:#C32400;stop-opacity:0.9"/>
</linearGradient>
<path class="st7" d="M233.5,199.4h15v15h-15V199.4z M263.5,214.4h15v-15h-15V214.4z M263.5,244.5h15v-15h-15V244.5z M233.5,244.5h15
	v-15h-15V244.5z M263.5,274.5h15v-15h-15V274.5z M233.5,274.5h15v-15h-15V274.5z M233.5,304.6h15v-15h-15V304.6z M263.5,304.6h15
	v-15h-15V304.6z M153.3,259.5h-15v15h15V259.5z M183.4,259.5h-15v15h15V259.5z M153.3,289.6h-15v15h15V289.6z M183.4,289.6h-15v15
	h15V289.6z M358.7,274.5h15v-15h-15V274.5z M328.6,274.5h15v-15h-15V274.5z M358.7,244.5h15v-15h-15V244.5z M328.6,244.5h15v-15h-15
	V244.5z M328.6,304.6h15v-15h-15V304.6z M358.7,304.6h15v-15h-15V304.6z M512,414.3c0,31.8-25.8,57.6-57.6,57.6
	c-28.1,0-51.5-20.2-56.6-46.8l-84.4,34.5C310.8,488.9,286,512,256,512s-54.8-23.1-57.4-52.5L114.2,425
	c-5.1,26.6-28.5,46.8-56.6,46.8C25.8,471.9,0,446.1,0,414.3s25.8-57.6,57.6-57.6c30,0,54.8,23.1,57.4,52.5l84.4,34.5
	c4.6-24.2,24.4-43.1,49.1-46.3v-52.6H90.7v-15h17.5V219.4h90.2v-60.1h50.1v-44.6c-24.7-3.2-44.5-22.1-49.1-46.3L115,102.8
	c-2.6,29.4-27.3,52.5-57.4,52.5C25.8,155.3,0,129.5,0,97.7s25.8-57.6,57.6-57.6c28.1,0,51.5,20.2,56.6,46.8l84.4-34.5
	C201.2,23.1,226,0,256,0s54.8,23.1,57.4,52.5L397.8,87c5.1-26.6,28.5-46.8,56.6-46.8c31.8,0,57.6,25.8,57.6,57.6
	s-25.8,57.6-57.6,57.6c-30,0-54.8-23.1-57.4-52.5l-84.4-34.5c-4.6,24.2-24.4,43.1-49.1,46.3v44.6h50.1v30.1h90.2v140.3h17.5v15
	H263.5v52.6c24.7,3.2,44.5,22.1,49.1,46.3l84.4-34.5c2.6-29.4,27.3-52.5,57.4-52.5C486.2,356.7,512,382.5,512,414.3z M411.8,97.7
	c0,23.5,19.1,42.6,42.6,42.6S497,121.2,497,97.7s-19.1-42.6-42.6-42.6C430.9,55.1,411.8,74.2,411.8,97.7z M100.2,97.7
	c0-23.5-19.1-42.6-42.6-42.6S15,74.2,15,97.7s19.1,42.6,42.6,42.6S100.2,121.2,100.2,97.7z M198.4,234.5h-75.1v95.2h75.1V234.5z
	 M100.2,414.3c0-23.5-19.1-42.6-42.6-42.6S15,390.8,15,414.3s19.1,42.6,42.6,42.6S100.2,437.8,100.2,414.3z M313.6,329.6h75.1V204.4
	h-75.1V329.6z M256,100.2c23.5,0,42.6-19.1,42.6-42.6S279.5,15,256,15s-42.6,19.1-42.6,42.6S232.5,100.2,256,100.2z M298.6,329.6
	V174.3h-85.2v155.3H298.6z M298.6,454.4c0-23.5-19.1-42.6-42.6-42.6s-42.6,19.1-42.6,42.6S232.5,497,256,497
	S298.6,477.9,298.6,454.4z M497,414.3c0-23.5-19.1-42.6-42.6-42.6s-42.6,19.1-42.6,42.6s19.1,42.6,42.6,42.6S497,437.8,497,414.3z"
	/>
</svg>
