<?xml version="1.0" encoding="utf-8"?>
<!-- Generator: Adobe Illustrator 24.2.1, SVG Export Plug-In . SVG Version: 6.00 Build 0)  -->
<svg version="1.1" id="Layer_1" xmlns="http://www.w3.org/2000/svg" xmlns:xlink="http://www.w3.org/1999/xlink" x="0px" y="0px"
	 viewBox="0 0 512 512" style="enable-background:new 0 0 512 512;" xml:space="preserve">
<style type="text/css">
	.st0{fill:#FFFFFF;}
	.st1{fill:url(#SVGID_1_);}
	.st2{fill:url(#SVGID_2_);}
	.st3{fill:url(#SVGID_3_);}
	.st4{fill:url(#SVGID_4_);}
	.st5{fill:url(#SVGID_5_);}
</style>
<path class="st0" d="M366.2,7.5H75.6V274h360.7V77.7L366.2,7.5z"/>
<linearGradient id="SVGID_1_" gradientUnits="userSpaceOnUse" x1="254.0574" y1="385.1537" x2="254.0574" y2="675.1736" gradientTransform="matrix(1.002 0 0 1.002 1.3845 -172.024)">
	<stop  offset="0" style="stop-color:#C00000;stop-opacity:0.8"/>
	<stop  offset="0.1369" style="stop-color:#CE3737;stop-opacity:0.9816"/>
	<stop  offset="0.433" style="stop-color:#E59696;stop-opacity:0.9362"/>
	<stop  offset="0.757" style="stop-color:#FFFFFF;stop-opacity:0.91"/>
</linearGradient>
<path class="st1" d="M436.4,504.5H75.6c-16.6,0-30.1-13.5-30.1-30.1V244c0-16.6,13.5-30.1,30.1-30.1h101.2c11.4,0,22.4,3.9,31.3,11
	l47.7,38.2c8.9,7.1,19.9,11,31.3,11h149.2c16.6,0,30.1,13.5,30.1,30.1v170.3C466.4,491,453,504.5,436.4,504.5L436.4,504.5z"/>
<linearGradient id="SVGID_2_" gradientUnits="userSpaceOnUse" x1="254.1073" y1="640.2435" x2="254.1073" y2="480.1636" gradientTransform="matrix(1.002 0 0 1.002 1.3845 -172.024)">
	<stop  offset="0" style="stop-color:#C00000;stop-opacity:0.3"/>
	<stop  offset="0.1927" style="stop-color:#F1C8C8;stop-opacity:0.6617"/>
	<stop  offset="0.6369" style="stop-color:#FFFFFF"/>
</linearGradient>
<circle class="st2" cx="256" cy="389.3" r="80.2"/>
<linearGradient id="SVGID_3_" gradientUnits="userSpaceOnUse" x1="254.1073" y1="213.0978" x2="254.1073" y2="373.1776" gradientTransform="matrix(1.002 0 0 1.002 1.3845 -172.024)">
	<stop  offset="0" style="stop-color:#C00000;stop-opacity:0.3"/>
	<stop  offset="0.2877" style="stop-color:#F1C8C8;stop-opacity:0.6617"/>
	<stop  offset="0.6369" style="stop-color:#FFFFFF"/>
</linearGradient>
<circle class="st3" cx="256" cy="121.7" r="80.2"/>
<linearGradient id="SVGID_4_" gradientUnits="userSpaceOnUse" x1="399.1672" y1="179.1657" x2="399.1672" y2="249.2255" gradientTransform="matrix(1.002 0 0 1.002 1.3845 -172.024)">
	<stop  offset="0" style="stop-color:#C00000;stop-opacity:0.3"/>
	<stop  offset="0.2877" style="stop-color:#F1C8C8;stop-opacity:0.6617"/>
	<stop  offset="0.6369" style="stop-color:#FFFFFF"/>
</linearGradient>
<path class="st4" d="M436.4,77.7h-70.1V7.5L436.4,77.7z"/>
<linearGradient id="SVGID_5_" gradientUnits="userSpaceOnUse" x1="256.05" y1="86" x2="256.05" y2="598.1" gradientTransform="matrix(1 0 0 1 0 -86)">
	<stop  offset="0" style="stop-color:#C00000"/>
	<stop  offset="0.9469" style="stop-color:#BC1600;stop-opacity:0.91"/>
	<stop  offset="0.9888" style="stop-color:#C32400;stop-opacity:0.9"/>
</linearGradient>
<path class="st5" d="M443.9,267.3V74.5L369.3,0H68.1v207.2c-17.1,3.5-30,18.6-30,36.8v230.5c0,20.7,16.9,37.6,37.6,37.6h360.7
	c20.7,0,37.6-16.9,37.6-37.6V304.1C473.9,286,461,270.8,443.9,267.3z M373.7,25.7l44.5,44.5h-44.5V25.7z M83.2,15h275.5v70.1h70.1
	v181.4H287.1c-9.7,0-19-3.3-26.6-9.3L212.8,219c-10.2-8.1-23-12.6-36-12.6H83.2V15z M458.9,474.4c0,12.4-10.1,22.5-22.5,22.5H75.6
	c-12.4,0-22.5-10.1-22.5-22.5V244c0-12.4,10.1-22.5,22.5-22.5h101.2c9.7,0,19,3.3,26.6,9.3l47.7,38.2c10.2,8.2,22.9,12.6,36,12.6
	h149.2c12.4,0,22.5,10.1,22.5,22.5v170.3L458.9,474.4L458.9,474.4z M288.6,405.3c0,13-10.6,23.5-23.5,23.5h-1.5v14.5h-15v-14.5H231
	v-15h34c4.7,0,8.5-3.8,8.5-8.5s-3.8-8.5-8.5-8.5h-18c-13,0-23.5-10.6-23.5-23.5c0-13,10.6-23.5,23.5-23.5h1.5v-14.5h15v14.5H281v15
	h-34c-4.7,0-8.5,3.8-8.5,8.5s3.8,8.5,8.5,8.5h18C278,381.7,288.6,392.3,288.6,405.3z M256,301.6c-48.3,0-87.7,39.3-87.7,87.7
	S207.6,477,256,477s87.7-39.3,87.7-87.7S304.3,301.6,256,301.6z M256,461.9c-40.1,0-72.6-32.6-72.6-72.6s32.6-72.6,72.6-72.6
	s72.6,32.6,72.6,72.6S296.1,461.9,256,461.9z M256,209.4c48.3,0,87.7-39.3,87.7-87.7S304.3,34.1,256,34.1s-87.7,39.3-87.7,87.7
	S207.7,209.4,256,209.4z M256,49.1c40.1,0,72.6,32.6,72.6,72.6S296,194.3,256,194.3s-72.6-32.6-72.6-72.6S215.9,49.1,256,49.1z
	 M238,169.4L200.6,132l10.6-10.6l26.7,26.7l58.8-58.8l10.6,10.6L238,169.4z"/>
</svg>
