<?xml version="1.0" encoding="utf-8"?>
<!-- Generator: Adobe Illustrator 24.2.1, SVG Export Plug-In . SVG Version: 6.00 Build 0)  -->
<svg version="1.1" id="Layer_1" xmlns="http://www.w3.org/2000/svg" xmlns:xlink="http://www.w3.org/1999/xlink" x="0px" y="0px"
	 viewBox="0 0 512 512" style="enable-background:new 0 0 512 512;" xml:space="preserve">
<style type="text/css">
	.st0{fill:url(#SVGID_1_);}
	.st1{fill:url(#SVGID_2_);}
	.st2{fill:#FFFFFF;}
	.st3{fill:url(#SVGID_3_);}
</style>
<linearGradient id="SVGID_1_" gradientUnits="userSpaceOnUse" x1="256" y1="509.919" x2="256" y2="508.5432">
	<stop  offset="0" style="stop-color:#C00000;stop-opacity:0.3"/>
	<stop  offset="0.2877" style="stop-color:#F1C8C8;stop-opacity:0.6617"/>
	<stop  offset="0.6369" style="stop-color:#FFFFFF"/>
</linearGradient>
<path class="st0" d="M504.5,462.7v49.1H7.5v-49.1c0-39.8,26.3-73.4,62.5-84.4c6.4,6.9,15.5,11.2,25.7,11.2s19.3-4.3,25.7-11.2
	c24.2,7.4,44,24.9,54.5,47.6c10.4-22.7,30.2-40.2,54.5-47.6c6.4,6.9,15.5,11.2,25.7,11.2s19.3-4.3,25.7-11.2
	c24.2,7.4,44,24.9,54.5,47.6c10.4-22.7,30.2-40.2,54.5-47.6c6.4,6.9,15.5,11.2,25.7,11.2s19.3-4.3,25.7-11.2
	C478.2,389.3,504.5,422.9,504.5,462.7z M463.4,275.3h-62.1c-11.1,0-20,9-20,20v20h70.1L463.4,275.3z M130.8,315.4v-20
	c0-11.1-9-20-20-20H48.6l12,40.1h70.2V315.4z M291.1,315.4l10-40.1h-90.2l10,40.1H291.1z"/>
<linearGradient id="SVGID_2_" gradientUnits="userSpaceOnUse" x1="254.8019" y1="93.6367" x2="254.8019" y2="323.6766" gradientTransform="matrix(1.002 0 0 1.002 0.6885 -86.024)">
	<stop  offset="0" style="stop-color:#C00000;stop-opacity:0.3"/>
	<stop  offset="0.2877" style="stop-color:#F1C8C8;stop-opacity:0.6617"/>
	<stop  offset="0.6369" style="stop-color:#FFFFFF"/>
</linearGradient>
<path class="st1" d="M40.6,7.8v200.4h42.1l16,30.1l67.1-30.1h50.1l40.1,30.1l40.1-30.1h50.1l67.1,30.1l16-30.1h42.1V7.8H40.6z"/>
<path class="st2" d="M281,141v42.1h-50V141c-17.8-9.1-30.1-27.7-30.1-49.1c0-30.4,24.7-55.1,55.1-55.1s55.1,24.7,55.1,55.1
	C311.1,113.3,298.9,131.9,281,141z M416.3,389.5c19.4,0,35.1-15.7,35.1-35.1v-39.1h-70.1v39.1C381.2,373.8,396.9,389.5,416.3,389.5z
	 M95.7,389.5c-19.4,0-35.1-15.7-35.1-35.1v-39.1h70.1v39.1C130.8,373.8,115.1,389.5,95.7,389.5z M256,389.5
	c-19.4,0-35.1-15.7-35.1-35.1v-39.1H291v39.1C291.1,373.8,275.4,389.5,256,389.5z"/>
<linearGradient id="SVGID_3_" gradientUnits="userSpaceOnUse" x1="256.1" y1="395.2142" x2="256.1" y2="450.824">
	<stop  offset="0" style="stop-color:#C00000"/>
	<stop  offset="0.9469" style="stop-color:#BC1600;stop-opacity:0.91"/>
	<stop  offset="0.9888" style="stop-color:#C32400;stop-opacity:0.9"/>
</linearGradient>
<path class="st3" d="M453.8,374.6c8.1-15.1,4-26.2,5.1-58.2l14.6-48.7h-72.2c-15.2,0-27.6,12.4-27.6,27.6v12.5
	c1.2,40.4-3.2,51.4,5.1,66.7c-17.5,7.4-32.3,19.9-42.7,35.8c-10.4-15.9-25.2-28.3-42.7-35.8c8.1-15.1,4-26.2,5.1-58.3l12.1-48.5
	H201.3l12.1,48.5c1.1,32.5-3,43.3,5.1,58.3c-17.4,7.5-32.3,19.9-42.7,35.8c-10.4-15.9-25.2-28.4-42.7-35.8
	c3.3-6.2,5.1-13.1,5.1-20.2v-59.1c0-15.2-12.4-27.6-27.6-27.6H38.5l14.6,48.7c1.1,32.3-3,43.2,5.1,58.2C23.6,389.4,0,423.4,0,462.7
	v49.1h15v-49.1c0-34.3,21.2-64.3,53.1-75.8c15.9,13.6,39.3,13.6,55.2,0c19.2,7,35,21,44.3,39.2c-11.1,26.7-5.9,44.8-7.2,85.7h15
	v-49.1c0-34.3,21.2-64.3,53.1-75.8c15.9,13.6,39.3,13.6,55.2,0c31.9,11.5,53.1,41.5,53.1,75.8v49.1h15c-1.4-40.8,3.8-59-7.2-85.7
	c9.3-18.2,25.1-32.3,44.3-39.2c15.9,13.6,39.2,13.6,55.2,0c31.9,11.6,53.1,41.5,53.1,75.8v49.1h15v-49.1
	C512,423.5,488.5,389.5,453.8,374.6z M123.2,354.4c0,15.2-12.4,27.6-27.6,27.6S68,369.6,68,354.4v-31.6h55.1L123.2,354.4
	L123.2,354.4z M123.2,307.9h-57l-7.5-25h52c6.9,0,12.5,5.6,12.5,12.5V307.9z M283.6,354.4c0,15.2-12.4,27.6-27.6,27.6
	c-15.2,0-27.6-12.4-27.6-27.6v-31.6h55.1v31.6H283.6z M285.2,307.9h-58.4l-6.3-25h70.9L285.2,307.9z M443.9,354.4
	c0,15.2-12.4,27.6-27.6,27.6s-27.6-12.4-27.6-27.6v-31.6h55.1v31.6H443.9z M445.8,307.9h-57v-12.5c0-6.9,5.6-12.5,12.5-12.5h52
	L445.8,307.9z M453.9,453.6h15v58.1h-15V453.6z M365.7,453.6h15v58.1h-15V453.6z M43.1,453.6h15v58.1h-15V453.6z M131.3,453.6h15
	v58.1h-15V453.6z M203.4,453.6h15v58.1h-15V453.6z M293.6,453.6h15v58.1h-15V453.6z M95.4,247.9l72.1-32.3h46l42.6,31.9l42.6-31.9
	h46l72.1,32.3l17.2-32.3h45.1V0.3h-446v215.4h45.1L95.4,247.9z M48.1,15.3h415.8v185.4h-39.1L410,228.5l-62.2-27.8h-54.2L256,228.8
	l-37.6-28.2h-54.2L102,228.5l-14.9-27.8h-39V15.3z M223.4,145.4v45.2h65.1v-45.2c54-32.8,30.4-116.1-32.6-116.1
	C193.1,29.3,169.4,112.6,223.4,145.4z M273.5,175.6h-35.1v-26.1h35.1V175.6z M256,44.3c49.6,0,66.2,67.2,21.6,90l-0.4,0.2h-13.7
	v-29.1H281v-15h-50v15h17.5v29.1h-13.7l-0.4-0.2C189.9,111.6,206.3,44.3,256,44.3z M171.8,99.4h-36.1v-15h36.1L171.8,99.4
	L171.8,99.4z M174.5,118.7l10.6,10.6l-24,24l-10.6-10.6L174.5,118.7z M174.5,65.2l-24-24l10.6-10.6l24,24L174.5,65.2z M340.2,84.4
	h36.1v15h-36.1V84.4z M350.9,153.4l-24-24l10.6-10.6l24,24L350.9,153.4z M337.5,65.2l-10.6-10.6l24-24l10.6,10.6L337.5,65.2z"/>
</svg>
