<svg id="Layer_1" data-name="Layer 1" xmlns="http://www.w3.org/2000/svg" xmlns:xlink="http://www.w3.org/1999/xlink" viewBox="0 0 177 37"><defs><clipPath id="clip-path"><path d="M21.85,15.27l2.9,3.13-3.06,3-2.87-3.09ZM18.77,4a2.49,2.49,0,0,0-2,3.78l.86,1.44a.73.73,0,0,1-.57,1.1H12.31l2.15,2.12h4.07a1.91,1.91,0,0,0,1.63-2.77L19,7.23a.78.78,0,0,1,.36-1.05.77.77,0,0,1,.34-.07l5,0a.82.82,0,0,1,.77.84.89.89,0,0,1-.21.52L16.85,16.2l-4.59-5A2.36,2.36,0,0,0,8.19,12.9l-.14,8.52a2.37,2.37,0,0,0,3.59,2.15L13,22.68a.7.7,0,0,1,1,.24.74.74,0,0,1,.1.41L14,28.26,16.09,26l.07-4.25A1.83,1.83,0,0,0,13.53,20l-2.35,1.19a.72.72,0,0,1-1-.35.92.92,0,0,1-.07-.36l.07-5.27a.74.74,0,0,1,1.29-.52l8.3,8.71L15,28.4a2.51,2.51,0,0,0,1.68,4.24h8.15a2.47,2.47,0,0,0,2-3.78L26,27.42a.7.7,0,0,1,.22-1,.73.73,0,0,1,.36-.12h4.71l-2.15-2.13H25.06A1.91,1.91,0,0,0,23.43,27l1.15,2.44a.78.78,0,0,1-.33,1.05,1.69,1.69,0,0,1-.34.1H18.84a.83.83,0,0,1-.77-.84.87.87,0,0,1,.22-.53l8.4-8.73,4.64,4.9a2.35,2.35,0,0,0,4-1.74l0-8.52A2.36,2.36,0,0,0,31.78,13l-1.39.9a.7.7,0,0,1-.95-.21.61.61,0,0,1-.1-.38l0-4.93-2.06,2.25,0,4.26a1.84,1.84,0,0,0,2.66,1.72l2.32-1.22a.76.76,0,0,1,1,.33,1.15,1.15,0,0,1,.07.36v5.26a.76.76,0,0,1-.72.79.71.71,0,0,1-.57-.24l-8.19-8.73,4.72-4.93A2.5,2.5,0,0,0,26.9,4Z" fill="none"/></clipPath><linearGradient id="linear-gradient" x1="-967.85" y1="239.52" x2="-967.61" y2="239.52" gradientTransform="matrix(-116.07, -42.25, -42.25, 116.07, -102184.89, -68665.51)" gradientUnits="userSpaceOnUse"><stop offset="0" stop-color="#282e4f"/><stop offset="0.17" stop-color="#295e9c"/><stop offset="0.39" stop-color="#8d9cc6"/><stop offset="0.51" stop-color="#697faf"/><stop offset="0.81" stop-color="#315186"/><stop offset="1" stop-color="#2a2d4d"/></linearGradient></defs><g clip-path="url(#clip-path)"><polygon points="-1.18 29.31 11.23 -4.8 44.65 7.35 32.24 41.46 -1.18 29.31" fill="url(#linear-gradient)"/></g><g style="isolation:isolate"><path d="M44.41,13.88v7.87h1.44v2H42.07V13.88Z" fill="#1d1d1b"/></g><g style="isolation:isolate"><path d="M53.1,13.88v6.58A13.56,13.56,0,0,1,53,22a2,2,0,0,1-.41.93,2.16,2.16,0,0,1-.86.72,3,3,0,0,1-1.27.24,3.41,3.41,0,0,1-1.43-.29,2.11,2.11,0,0,1-1.3-1.75c0-.33,0-1.07,0-2.17V13.88h2.34v7.39a2.75,2.75,0,0,0,.07.82.26.26,0,0,0,.26.19.29.29,0,0,0,.29-.19,3.73,3.73,0,0,0,.07-.94V13.88Z" fill="#1d1d1b"/><path d="M60.87,18.19H58.53V16.46a3.87,3.87,0,0,0-.07-.93.34.34,0,0,0-.34-.19.33.33,0,0,0-.36.22,4.49,4.49,0,0,0-.07,1v4.57a4.26,4.26,0,0,0,.07.93.34.34,0,0,0,.36.21.33.33,0,0,0,.34-.21,4.88,4.88,0,0,0,.07-1V19.77h2.34v.38a9,9,0,0,1-.19,2.18,2.31,2.31,0,0,1-.88,1.12,2.92,2.92,0,0,1-1.68.48,3.37,3.37,0,0,1-1.7-.41,1.85,1.85,0,0,1-.88-1.12,7.84,7.84,0,0,1-.22-2.18V17.35a14.93,14.93,0,0,1,.07-1.6,2.22,2.22,0,0,1,.41-1,2.08,2.08,0,0,1,.91-.77,3.33,3.33,0,0,1,1.36-.28,3.17,3.17,0,0,1,1.73.43,1.93,1.93,0,0,1,.88,1.1,6.76,6.76,0,0,1,.22,2v1Z" fill="#1d1d1b"/><path d="M68.67,13.88l-1.34,4.45,1.49,5.41H66.4l-1-4.21v4.21H63.1V13.88h2.34v3.83l1.06-3.83Z" fill="#1d1d1b"/></g><g style="isolation:isolate"><path d="M75.59,13.88l-1.73,6.29v3.57H71.69V20.17L70,13.88h2.15c.33,1.91.53,3.21.57,3.88.12-1.06.36-2.35.65-3.88Z" fill="#1d1d1b"/></g><g style="isolation:isolate"><path d="M84.8,13.88l1.34,9.86h-2.4L83.62,22h-.83l-.15,1.77H80.2l1.2-9.86Zm-1.25,6.34c-.12-1.12-.24-2.49-.36-4.14-.24,1.89-.38,3.25-.45,4.14Z" fill="#1d1d1b"/><path d="M93.15,13.88v9.86H91.09l-1.22-4.48v4.48h-2V13.88h2l1.31,4.43V13.88Z" fill="#1d1d1b"/></g><g style="isolation:isolate"><path d="M100.18,13.88v2H98.79v7.87H96.45V15.87H95.06v-2h5.12Z" fill="#1d1d1b"/></g><g style="isolation:isolate"><path d="M52.43,27.88H50.3v-.55h5.17v.55H53.34v4.54h-.91V27.88Z" fill="#1d1d1b"/></g><g style="isolation:isolate"><path d="M57,29.91a8.18,8.18,0,0,0,0-1.15h.79l0,.72h.05a1.52,1.52,0,0,1,1.39-.81,1.14,1.14,0,0,1,.26,0v.62a1.47,1.47,0,0,0-.31,0,1.17,1.17,0,0,0-1.22.86,1.34,1.34,0,0,0,0,.31v2H57V29.91Z" fill="#1d1d1b"/></g><g style="isolation:isolate"><path d="M64.37,32.42,64.29,32h0a2.19,2.19,0,0,1-1.53.55c-1,0-1.53-.53-1.53-1.06,0-.88,1.07-1.36,3-1.36V30c0-.31-.12-.84-1.15-.84a3.36,3.36,0,0,0-1.31.26L61.54,29a4.17,4.17,0,0,1,1.65-.33c1.53,0,1.92.76,1.92,1.51v1.36a4.83,4.83,0,0,0,.07.88h-.81Zm-.15-1.86c-1,0-2.13.11-2.13.83,0,.43.39.65.86.65a1.29,1.29,0,0,0,1.22-.62.63.63,0,0,0,0-.22v-.64Z" fill="#1d1d1b"/></g><g style="isolation:isolate"><path d="M72.17,27v4.42a7.09,7.09,0,0,0,0,1H71.4l-.05-.64h0a2.08,2.08,0,0,1-1.72.71,2,2,0,0,1-2.16-1.86,2,2,0,0,1,2.25-2,1.89,1.89,0,0,1,1.51.55h0V27h.94Zm-.91,3.2a.6.6,0,0,0-.05-.28,1.31,1.31,0,0,0-1.32-.77,1.38,1.38,0,0,0-1.5,1.41,1.5,1.5,0,0,0,2.82.58,1.47,1.47,0,0,0,.05-.29v-.65Z" fill="#1d1d1b"/></g><g style="isolation:isolate"><path d="M75.94,27.73c0,.24-.21.41-.57.41s-.55-.19-.55-.41.24-.4.57-.4A.45.45,0,0,1,75.94,27.73Zm-1,4.69V28.76h.91v3.66Z" fill="#1d1d1b"/></g><g style="isolation:isolate"><path d="M78.6,29.74a6.25,6.25,0,0,0,0-1h.82l0,.59h0a2,2,0,0,1,1.65-.69,1.58,1.58,0,0,1,1.77,1.56v2.2H82V30.29c0-.6-.31-1.07-1.17-1.07a1.27,1.27,0,0,0-1.22.69.57.57,0,0,0-.07.31v2.2h-.91V29.74Z" fill="#1d1d1b"/></g><g style="isolation:isolate"><path d="M89.92,28.76a8.38,8.38,0,0,0,0,1v2.12a1.81,1.81,0,0,1-.72,1.68,3.36,3.36,0,0,1-1.82.43,4,4,0,0,1-1.67-.31l.24-.5a3.92,3.92,0,0,0,1.48.28c.93,0,1.63-.36,1.63-1.29V31.8h0a2,2,0,0,1-1.6.62,1.92,1.92,0,0,1-2.13-1.79,2.06,2.06,0,0,1,2.27-1.94,1.8,1.8,0,0,1,1.56.64h0l.05-.55h.77ZM89,30.2a.75.75,0,0,0,0-.31,1.33,1.33,0,0,0-1.27-.7,1.38,1.38,0,0,0-1.49,1.39,1.32,1.32,0,0,0,1.49,1.31,1.38,1.38,0,0,0,1.27-.69,1.15,1.15,0,0,0,.07-.36V30.2Z" fill="#1d1d1b"/></g></svg>