<svg xmlns="http://www.w3.org/2000/svg" xmlns:xlink="http://www.w3.org/1999/xlink" viewBox="0 0 191.58 193.42"><defs><style>.cls-1{fill:none;}.cls-2{clip-path:url(#clip-path);}.cls-3{fill:url(#linear-gradient);}</style><clipPath id="clip-path" transform="translate(38.62 36.83)"><path class="cls-1" d="M57.69,47.08,69.76,60.13,57,72.75,45,59.83ZM44.74,0C37,0,32.22,9,36.36,15.85l3.62,6a3,3,0,0,1-2.45,4.62H17.81l9,8.93h17c5.7,0,9.4-6.29,6.83-11.61l-4.9-10.16A3.27,3.27,0,0,1,48.58,8.9l21.09-.06a3.31,3.31,0,0,1,2.22,5.62L36.82,51,17.57,30.15c-6.13-6.62-16.86-2.19-17,7L0,72.79c-.13,8.13,8.36,13.23,15,9l5.83-3.69a2.88,2.88,0,0,1,4.37,2.63l-.32,20.63,8.68-9.29.28-17.8c.1-6-5.85-9.94-11-7.34l-9.8,5a3.15,3.15,0,0,1-4.51-3l.3-22a3.12,3.12,0,0,1,5.4-2.22L48.94,81.17,29,102c-6.24,6.51-1.84,17.66,7,17.67l34.06,0c7.78,0,12.53-8.94,8.4-15.84l-3.62-6a3,3,0,0,1,2.45-4.62l19.73,0-9-8.94-17,0c-5.71,0-9.41,6.27-6.85,11.6L69,106.08a3.28,3.28,0,0,1-2.8,4.76l-21.08,0a3.31,3.31,0,0,1-2.22-5.62L78,68.76,97.44,89.23c6.21,6.53,16.88,2,16.91-7.27l.1-35.61c0-8.14-8.53-13.12-15.13-8.81l-5.78,3.77a2.89,2.89,0,0,1-4.41-2.57l.06-20.63-8.56,9.41-.06,17.81c0,6,6,9.85,11.09,7.17l9.73-5.09a3.14,3.14,0,0,1,4.54,2.93v22a3.13,3.13,0,0,1-5.38,2.31L66.1,38.28,85.8,17.66C92,11.14,87.61,0,78.79,0Z"/></clipPath><linearGradient id="linear-gradient" x1="-63.71" y1="320.1" x2="-62.71" y2="320.1" gradientTransform="matrix(0, -123.52, -123.52, 0, 39596.89, -7748)" gradientUnits="userSpaceOnUse"><stop offset="0" stop-color="#282e4f"/><stop offset="0.17" stop-color="#295e9c"/><stop offset="0.39" stop-color="#8d9cc6"/><stop offset="0.51" stop-color="#697faf"/><stop offset="0.81" stop-color="#315186"/><stop offset="1" stop-color="#2a2d4d"/></linearGradient></defs><g id="Layer_2" data-name="Layer 2"><g id="Layer_1-2" data-name="Layer 1"><g class="cls-2"><rect class="cls-3" x="-18.69" y="-14.45" width="151.73" height="148.65" transform="translate(19.97 129.96) rotate(-70)"/></g></g></g></svg>