<?xml version="1.0" encoding="utf-8"?>
<!-- Generator: Adobe Illustrator 24.2.1, SVG Export Plug-In . SVG Version: 6.00 Build 0)  -->
<svg version="1.1" id="Layer_1" xmlns="http://www.w3.org/2000/svg" xmlns:xlink="http://www.w3.org/1999/xlink" x="0px" y="0px"
	 viewBox="0 0 424 193.4" style="enable-background:new 0 0 424 193.4;" xml:space="preserve">
<style type="text/css">
	.st0{clip-path:url(#SVGID_2_);}
	.st1{fill:url(#SVGID_3_);}
	.st2{enable-background:new    ;}
	.st3{fill:#FFFFFF;}
</style>
<g>
	<g>
		<defs>
			<path id="SVGID_1_" d="M76.3,83.9L88.4,97l-12.8,12.6l-12-12.9L76.3,83.9z M63.4,36.8c-7.7,0-12.5,9-8.4,15.8l3.6,6
				c0.9,1.4,0.5,3.3-0.9,4.1c-0.5,0.3-1,0.5-1.5,0.5H36.4l9,8.9h17c5.7,0,9.4-6.3,6.8-11.6l-4.9-10.2c-0.8-1.6-0.2-3.6,1.5-4.4
				c0.4-0.2,0.9-0.3,1.4-0.3l21.1-0.1c1.8,0.1,3.2,1.6,3.2,3.5c0,0.8-0.4,1.6-0.9,2.2L55.4,87.8L36.2,67c-6.1-6.6-16.9-2.2-17,7
				l-0.6,35.6c-0.1,8.1,8.4,13.2,15,9l5.8-3.7c1.4-0.8,3.1-0.4,4,1c0.3,0.5,0.4,1.1,0.4,1.7l-0.3,20.6l8.7-9.3l0.3-17.8
				c0.1-6-5.8-9.9-11-7.3l-9.8,5c-1.6,0.8-3.5,0.1-4.2-1.5c-0.2-0.5-0.3-1-0.3-1.5l0.3-22c-0.1-1.7,1.3-3.2,3-3.2
				c0.9,0,1.8,0.3,2.4,1L67.6,118l-19.9,20.8c-6.2,6.5-1.8,17.7,7,17.7h34.1c7.8,0,12.5-8.9,8.4-15.8l-3.6-6
				c-0.9-1.4-0.5-3.3,0.9-4.1c0.5-0.3,1-0.5,1.5-0.5h19.7l-9-8.9h-17c-5.7,0-9.4,6.3-6.8,11.6l4.8,10.2c0.8,1.6,0.2,3.6-1.4,4.4
				c-0.4,0.2-0.9,0.3-1.4,0.4H63.7c-1.8-0.1-3.2-1.6-3.2-3.5c0-0.8,0.4-1.6,0.9-2.2l35.1-36.5l19.4,20.5c6.2,6.5,16.9,2,16.9-7.3
				l0.1-35.6c0-8.1-8.5-13.1-15.1-8.8l-5.8,3.8c-1.4,0.8-3.1,0.4-4-0.9c-0.3-0.5-0.5-1.1-0.4-1.6l0.1-20.6l-8.6,9.4l-0.1,17.8
				c0,6,6,9.9,11.1,7.2l9.7-5.1c1.6-0.8,3.4-0.1,4.2,1.4c0.2,0.5,0.3,1,0.3,1.5v22c0.1,1.7-1.3,3.2-3,3.3c-0.9,0-1.8-0.3-2.4-1
				L84.7,75.1l19.7-20.6c6.2-6.5,1.8-17.7-7-17.7H63.4z"/>
		</defs>
		<clipPath id="SVGID_2_">
			<use xlink:href="#SVGID_1_"  style="overflow:visible;"/>
		</clipPath>
		<g class="st0">
			
				<linearGradient id="SVGID_3_" gradientUnits="userSpaceOnUse" x1="-453.6266" y1="-79.434" x2="-452.6266" y2="-79.434" gradientTransform="matrix(-116.0708 -42.2463 42.2463 -116.0708 -49163.3633 -28266.248)">
				<stop  offset="0" style="stop-color:#282E4F"/>
				<stop  offset="0.17" style="stop-color:#295E9C"/>
				<stop  offset="0.39" style="stop-color:#8D9CC6"/>
				<stop  offset="0.51" style="stop-color:#697FAF"/>
				<stop  offset="0.81" style="stop-color:#315186"/>
				<stop  offset="1" style="stop-color:#2A2D4D"/>
			</linearGradient>
			<polygon class="st1" points="-20,142.6 31.9,0 171.6,50.8 119.7,193.4 			"/>
		</g>
	</g>
	<g class="st2">
		<path class="st3" d="M170.6,78.1v32.9h6v8.2h-15.8V78.1H170.6z"/>
	</g>
	<g class="st2">
		<path class="st3" d="M206.9,78.1v27.5c0,3.1-0.1,5.3-0.3,6.6s-0.7,2.6-1.7,3.9c-0.9,1.3-2.1,2.3-3.6,3c-1.5,0.7-3.3,1-5.3,1
			c-2.3,0-4.2-0.4-6-1.2s-3-1.9-3.9-3.2c-0.9-1.3-1.4-2.7-1.5-4.1c-0.2-1.4-0.2-4.5-0.2-9.1V78.1h9.8V109c0,1.8,0.1,2.9,0.3,3.4
			c0.2,0.5,0.5,0.8,1.1,0.8c0.6,0,1-0.3,1.2-0.8c0.2-0.6,0.3-1.9,0.3-3.9V78.1H206.9z"/>
		<path class="st3" d="M239.4,96.1h-9.8v-7.2c0-2.1-0.1-3.4-0.3-3.9c-0.2-0.5-0.7-0.8-1.4-0.8c-0.8,0-1.3,0.3-1.5,0.9
			c-0.2,0.6-0.3,2-0.3,4.1v19.1c0,2,0.1,3.3,0.3,3.9c0.2,0.6,0.7,0.9,1.5,0.9c0.7,0,1.2-0.3,1.4-0.9c0.2-0.6,0.3-2,0.3-4.3v-5.2h9.8
			v1.6c0,4.3-0.3,7.3-0.8,9.1c-0.6,1.8-1.8,3.3-3.7,4.7c-1.9,1.3-4.2,2-7,2c-2.9,0-5.2-0.6-7.1-1.7c-1.9-1.1-3.1-2.7-3.7-4.7
			s-0.9-5-0.9-9.1v-12c0-3,0.1-5.2,0.3-6.7c0.2-1.5,0.7-2.9,1.7-4.3c0.9-1.4,2.2-2.5,3.8-3.2s3.5-1.2,5.7-1.2c2.9,0,5.3,0.6,7.2,1.8
			c1.9,1.2,3.1,2.7,3.7,4.6c0.6,1.8,0.9,4.7,0.9,8.5V96.1z"/>
		<path class="st3" d="M272,78.1l-5.6,18.6l6.2,22.6h-10.1l-4-17.6v17.6h-9.8V78.1h9.8v16l4.4-16H272z"/>
	</g>
	<g class="st2">
		<path class="st3" d="M300.9,78.1l-7.2,26.3v14.9h-9.1v-14.9l-6.9-26.3h9c1.4,8,2.2,13.4,2.4,16.2c0.5-4.4,1.5-9.8,2.7-16.2H300.9z
			"/>
	</g>
	<g class="st2">
		<path class="st3" d="M339.4,78.1l5.6,41.2h-10l-0.5-7.4h-3.5l-0.6,7.4h-10.2l5-41.2H339.4z M334.2,104.6c-0.5-4.7-1-10.4-1.5-17.3
			c-1,7.9-1.6,13.6-1.9,17.3H334.2z"/>
		<path class="st3" d="M374.3,78.1v41.2h-8.6l-5.1-18.7v18.7h-8.2V78.1h8.2l5.5,18.5V78.1H374.3z"/>
	</g>
	<g class="st2">
		<path class="st3" d="M403.7,78.1v8.2h-5.8v32.9h-9.8V86.4h-5.8v-8.2H403.7z"/>
	</g>
	<g class="st2">
		<path class="st3" d="M204.1,136.6h-8.9v-2.3h21.6v2.3h-8.9v19h-3.8V136.6z"/>
	</g>
	<g class="st2">
		<path class="st3" d="M223.2,145.1c0-1.8,0-3.4-0.2-4.8h3.3l0.1,3h0.2c1-2.1,3.3-3.4,5.8-3.4c0.4,0,0.7,0,1.1,0.1v2.6
			c-0.4-0.1-0.8-0.1-1.3-0.1c-2.7,0-4.6,1.5-5.1,3.6c-0.1,0.4-0.2,0.8-0.2,1.3v8.2h-3.8V145.1z"/>
	</g>
	<g class="st2">
		<path class="st3" d="M254,155.6l-0.3-1.9h-0.1c-1.2,1.2-3.4,2.3-6.4,2.3c-4.3,0-6.4-2.2-6.4-4.4c0-3.7,4.5-5.7,12.6-5.7v-0.3
			c0-1.3-0.5-3.5-4.8-3.5c-2,0-4,0.4-5.5,1.1l-0.9-1.8c1.7-0.8,4.3-1.4,6.9-1.4c6.4,0,8,3.2,8,6.3v5.7c0,1.3,0.1,2.6,0.3,3.7H254z
			 M253.4,147.8c-4.2-0.1-8.9,0.5-8.9,3.5c0,1.8,1.6,2.7,3.6,2.7c2.7,0,4.5-1.3,5.1-2.6c0.1-0.3,0.2-0.6,0.2-0.9V147.8z"/>
	</g>
	<g class="st2">
		<path class="st3" d="M286.6,133.1v18.5c0,1.4,0,2.9,0.2,4h-3.4l-0.2-2.7h-0.1c-1.2,1.7-3.7,3-7.2,3c-5.1,0-9-3.1-9-7.8
			c0-5.1,4.3-8.2,9.4-8.2c3.2,0,5.4,1.1,6.3,2.3h0.1v-9.2H286.6z M282.8,146.5c0-0.3,0-0.8-0.2-1.2c-0.6-1.8-2.6-3.2-5.5-3.2
			c-3.9,0-6.3,2.5-6.3,5.9c0,3.1,2.1,5.7,6.2,5.7c2.6,0,4.9-1.2,5.6-3.3c0.1-0.4,0.2-0.8,0.2-1.2V146.5z"/>
	</g>
	<g class="st2">
		<path class="st3" d="M302.4,136c0,1-0.9,1.7-2.4,1.7c-1.3,0-2.3-0.8-2.3-1.7c0-1,1-1.7,2.4-1.7C301.4,134.2,302.4,135,302.4,136z
			 M298.1,155.6v-15.3h3.8v15.3H298.1z"/>
	</g>
	<g class="st2">
		<path class="st3" d="M313.5,144.4c0-1.6,0-2.9-0.2-4.2h3.4l0.2,2.5h0.1c1-1.5,3.5-2.9,6.9-2.9c2.9,0,7.4,1.3,7.4,6.5v9.2h-3.8
			v-8.8c0-2.5-1.3-4.5-4.9-4.5c-2.5,0-4.5,1.3-5.1,2.9c-0.2,0.3-0.3,0.8-0.3,1.3v9.2h-3.8V144.4z"/>
	</g>
	<g class="st2">
		<path class="st3" d="M360.8,140.3c-0.1,1.1-0.2,2.3-0.2,4.2v8.9c0,3.5-1,5.7-3,7c-2,1.4-5,1.8-7.6,1.8c-2.5,0-5.3-0.4-7-1.3l1-2.1
			c1.4,0.6,3.6,1.2,6.2,1.2c3.9,0,6.8-1.5,6.8-5.4V153h-0.1c-1.2,1.4-3.4,2.6-6.7,2.6c-5.2,0-8.9-3.2-8.9-7.5c0-5.2,4.6-8.1,9.5-8.1
			c3.6,0,5.6,1.4,6.5,2.7h0.1l0.2-2.3H360.8z M356.9,146.3c0-0.5,0-0.9-0.2-1.3c-0.7-1.6-2.6-2.9-5.3-2.9c-3.6,0-6.2,2.3-6.2,5.8
			c0,3,2.1,5.5,6.2,5.5c2.3,0,4.5-1.1,5.3-2.9c0.2-0.5,0.3-1,0.3-1.5V146.3z"/>
	</g>
</g>
</svg>
